<mxfile host="app.diagrams.net" modified="2022-07-07T16:14:37.666Z" agent="5.0 (Windows NT 10.0; Win64; x64) AppleWebKit/537.36 (KHTML, like Gecko) Chrome/103.0.5060.66 Safari/537.36 Edg/103.0.1264.44" etag="lJm7Qwagwikdi9XHQU2h" version="20.0.4" type="github">
  <diagram id="C5RBs43oDa-KdzZeNtuy" name="Page-1">
    <mxGraphModel dx="1697" dy="917" grid="1" gridSize="10" guides="1" tooltips="1" connect="1" arrows="1" fold="1" page="1" pageScale="1" pageWidth="827" pageHeight="1169" background="#EDEDED" math="0" shadow="0">
      <root>
        <mxCell id="WIyWlLk6GJQsqaUBKTNV-0" />
        <mxCell id="WIyWlLk6GJQsqaUBKTNV-1" parent="WIyWlLk6GJQsqaUBKTNV-0" />
        <mxCell id="MvEUnIfEtAE5FNYAcTtk-21" style="edgeStyle=orthogonalEdgeStyle;rounded=0;orthogonalLoop=1;jettySize=auto;html=1;entryX=0.5;entryY=0;entryDx=0;entryDy=0;fontSize=12;" parent="WIyWlLk6GJQsqaUBKTNV-1" source="MvEUnIfEtAE5FNYAcTtk-19" target="MvEUnIfEtAE5FNYAcTtk-20" edge="1">
          <mxGeometry relative="1" as="geometry" />
        </mxCell>
        <mxCell id="MvEUnIfEtAE5FNYAcTtk-19" value="Start" style="rounded=1;whiteSpace=wrap;html=1;fontSize=12;fillColor=#e1d5e7;strokeColor=#9673a6;" parent="WIyWlLk6GJQsqaUBKTNV-1" vertex="1">
          <mxGeometry x="130" y="60" width="120" height="60" as="geometry" />
        </mxCell>
        <mxCell id="MvEUnIfEtAE5FNYAcTtk-23" style="edgeStyle=orthogonalEdgeStyle;rounded=0;orthogonalLoop=1;jettySize=auto;html=1;entryX=0.5;entryY=0;entryDx=0;entryDy=0;fontSize=12;" parent="WIyWlLk6GJQsqaUBKTNV-1" source="MvEUnIfEtAE5FNYAcTtk-20" target="MvEUnIfEtAE5FNYAcTtk-22" edge="1">
          <mxGeometry relative="1" as="geometry" />
        </mxCell>
        <mxCell id="MvEUnIfEtAE5FNYAcTtk-20" value="Generate a random word" style="rounded=1;whiteSpace=wrap;html=1;fontSize=12;fillColor=#d5e8d4;strokeColor=#82b366;" parent="WIyWlLk6GJQsqaUBKTNV-1" vertex="1">
          <mxGeometry x="354" y="140" width="120" height="50" as="geometry" />
        </mxCell>
        <mxCell id="MvEUnIfEtAE5FNYAcTtk-25" value="" style="edgeStyle=orthogonalEdgeStyle;rounded=0;orthogonalLoop=1;jettySize=auto;html=1;fontSize=12;" parent="WIyWlLk6GJQsqaUBKTNV-1" source="MvEUnIfEtAE5FNYAcTtk-22" target="MvEUnIfEtAE5FNYAcTtk-24" edge="1">
          <mxGeometry relative="1" as="geometry" />
        </mxCell>
        <mxCell id="MvEUnIfEtAE5FNYAcTtk-22" value="Generate a many blanks as letters in word" style="rounded=1;whiteSpace=wrap;html=1;fontSize=12;fillColor=#d5e8d4;strokeColor=#82b366;" parent="WIyWlLk6GJQsqaUBKTNV-1" vertex="1">
          <mxGeometry x="341" y="230" width="146" height="60" as="geometry" />
        </mxCell>
        <mxCell id="MvEUnIfEtAE5FNYAcTtk-27" value="" style="edgeStyle=orthogonalEdgeStyle;rounded=0;orthogonalLoop=1;jettySize=auto;html=1;fontSize=12;" parent="WIyWlLk6GJQsqaUBKTNV-1" source="MvEUnIfEtAE5FNYAcTtk-24" target="MvEUnIfEtAE5FNYAcTtk-26" edge="1">
          <mxGeometry relative="1" as="geometry" />
        </mxCell>
        <mxCell id="MvEUnIfEtAE5FNYAcTtk-24" value="Ask User to Guess a letter" style="rounded=1;whiteSpace=wrap;html=1;fontSize=12;fillColor=#d5e8d4;strokeColor=#82b366;" parent="WIyWlLk6GJQsqaUBKTNV-1" vertex="1">
          <mxGeometry x="341" y="320" width="146" height="50" as="geometry" />
        </mxCell>
        <mxCell id="MvEUnIfEtAE5FNYAcTtk-29" value="" style="edgeStyle=orthogonalEdgeStyle;rounded=0;orthogonalLoop=1;jettySize=auto;html=1;fontSize=14;" parent="WIyWlLk6GJQsqaUBKTNV-1" source="MvEUnIfEtAE5FNYAcTtk-26" target="MvEUnIfEtAE5FNYAcTtk-28" edge="1">
          <mxGeometry relative="1" as="geometry" />
        </mxCell>
        <mxCell id="MvEUnIfEtAE5FNYAcTtk-31" style="edgeStyle=orthogonalEdgeStyle;rounded=0;orthogonalLoop=1;jettySize=auto;html=1;entryX=0.5;entryY=0;entryDx=0;entryDy=0;fontSize=14;" parent="WIyWlLk6GJQsqaUBKTNV-1" target="MvEUnIfEtAE5FNYAcTtk-30" edge="1">
          <mxGeometry relative="1" as="geometry">
            <mxPoint x="374.75" y="462.5" as="sourcePoint" />
          </mxGeometry>
        </mxCell>
        <mxCell id="MvEUnIfEtAE5FNYAcTtk-26" value="&lt;p style=&quot;line-height: 1;&quot;&gt;&lt;font size=&quot;1&quot;&gt;&amp;nbsp;&lt;/font&gt;&lt;span style=&quot;font-size: 14px;&quot;&gt;Is the guessed letter in word?&lt;/span&gt;&lt;/p&gt;" style="rhombus;whiteSpace=wrap;html=1;rounded=1;fillColor=#f8cecc;strokeColor=#b85450;" parent="WIyWlLk6GJQsqaUBKTNV-1" vertex="1">
          <mxGeometry x="352" y="410" width="124" height="105" as="geometry" />
        </mxCell>
        <mxCell id="MvEUnIfEtAE5FNYAcTtk-41" style="edgeStyle=orthogonalEdgeStyle;rounded=0;orthogonalLoop=1;jettySize=auto;html=1;entryX=0.5;entryY=0;entryDx=0;entryDy=0;fontSize=14;" parent="WIyWlLk6GJQsqaUBKTNV-1" source="MvEUnIfEtAE5FNYAcTtk-28" target="MvEUnIfEtAE5FNYAcTtk-40" edge="1">
          <mxGeometry relative="1" as="geometry" />
        </mxCell>
        <mxCell id="MvEUnIfEtAE5FNYAcTtk-28" value="Lose a life" style="whiteSpace=wrap;html=1;rounded=1;fillColor=#d5e8d4;strokeColor=#82b366;" parent="WIyWlLk6GJQsqaUBKTNV-1" vertex="1">
          <mxGeometry x="489.75" y="550" width="103" height="40" as="geometry" />
        </mxCell>
        <mxCell id="MvEUnIfEtAE5FNYAcTtk-35" value="" style="edgeStyle=orthogonalEdgeStyle;rounded=0;orthogonalLoop=1;jettySize=auto;html=1;fontSize=14;" parent="WIyWlLk6GJQsqaUBKTNV-1" source="MvEUnIfEtAE5FNYAcTtk-30" target="MvEUnIfEtAE5FNYAcTtk-34" edge="1">
          <mxGeometry relative="1" as="geometry" />
        </mxCell>
        <mxCell id="MvEUnIfEtAE5FNYAcTtk-30" value="Replace the blank with letter" style="whiteSpace=wrap;html=1;rounded=1;fillColor=#d5e8d4;strokeColor=#82b366;" parent="WIyWlLk6GJQsqaUBKTNV-1" vertex="1">
          <mxGeometry x="235.25" y="565" width="103" height="40" as="geometry" />
        </mxCell>
        <mxCell id="MvEUnIfEtAE5FNYAcTtk-32" value="Yes" style="text;html=1;strokeColor=none;fillColor=none;align=center;verticalAlign=middle;whiteSpace=wrap;rounded=0;fontSize=14;" parent="WIyWlLk6GJQsqaUBKTNV-1" vertex="1">
          <mxGeometry x="220" y="500" width="60" height="30" as="geometry" />
        </mxCell>
        <mxCell id="MvEUnIfEtAE5FNYAcTtk-33" value="No" style="text;html=1;strokeColor=none;fillColor=none;align=center;verticalAlign=middle;whiteSpace=wrap;rounded=0;fontSize=14;" parent="WIyWlLk6GJQsqaUBKTNV-1" vertex="1">
          <mxGeometry x="539.75" y="470" width="60" height="30" as="geometry" />
        </mxCell>
        <mxCell id="MvEUnIfEtAE5FNYAcTtk-39" style="edgeStyle=orthogonalEdgeStyle;rounded=0;orthogonalLoop=1;jettySize=auto;html=1;exitX=0;exitY=0.5;exitDx=0;exitDy=0;entryX=0;entryY=0.5;entryDx=0;entryDy=0;fontSize=14;" parent="WIyWlLk6GJQsqaUBKTNV-1" source="MvEUnIfEtAE5FNYAcTtk-34" target="MvEUnIfEtAE5FNYAcTtk-24" edge="1">
          <mxGeometry relative="1" as="geometry">
            <Array as="points">
              <mxPoint x="180" y="718" />
              <mxPoint x="180" y="345" />
            </Array>
          </mxGeometry>
        </mxCell>
        <mxCell id="MvEUnIfEtAE5FNYAcTtk-51" style="edgeStyle=orthogonalEdgeStyle;rounded=0;orthogonalLoop=1;jettySize=auto;html=1;exitX=0.5;exitY=1;exitDx=0;exitDy=0;entryX=0.5;entryY=1;entryDx=0;entryDy=0;fontSize=14;endArrow=none;endFill=0;" parent="WIyWlLk6GJQsqaUBKTNV-1" source="MvEUnIfEtAE5FNYAcTtk-34" target="MvEUnIfEtAE5FNYAcTtk-40" edge="1">
          <mxGeometry relative="1" as="geometry">
            <Array as="points">
              <mxPoint x="287" y="850" />
              <mxPoint x="541" y="850" />
            </Array>
          </mxGeometry>
        </mxCell>
        <mxCell id="MvEUnIfEtAE5FNYAcTtk-34" value="&amp;nbsp; &amp;nbsp;Are all the blanked filled?" style="rhombus;whiteSpace=wrap;html=1;rounded=1;fillColor=#f8cecc;strokeColor=#b85450;" parent="WIyWlLk6GJQsqaUBKTNV-1" vertex="1">
          <mxGeometry x="232.5" y="665" width="108.5" height="105" as="geometry" />
        </mxCell>
        <mxCell id="MvEUnIfEtAE5FNYAcTtk-42" style="edgeStyle=orthogonalEdgeStyle;rounded=0;orthogonalLoop=1;jettySize=auto;html=1;entryX=1;entryY=0.5;entryDx=0;entryDy=0;fontSize=14;" parent="WIyWlLk6GJQsqaUBKTNV-1" source="MvEUnIfEtAE5FNYAcTtk-40" target="MvEUnIfEtAE5FNYAcTtk-24" edge="1">
          <mxGeometry relative="1" as="geometry">
            <Array as="points">
              <mxPoint x="640" y="718" />
              <mxPoint x="640" y="345" />
            </Array>
          </mxGeometry>
        </mxCell>
        <mxCell id="MvEUnIfEtAE5FNYAcTtk-40" value="&lt;p style=&quot;line-height: 1.1;&quot;&gt;&amp;nbsp; &amp;nbsp;Have they run out of lives?&lt;/p&gt;" style="rhombus;whiteSpace=wrap;html=1;rounded=1;spacingTop=9;spacingLeft=-6;fillColor=#f8cecc;strokeColor=#b85450;" parent="WIyWlLk6GJQsqaUBKTNV-1" vertex="1">
          <mxGeometry x="487" y="665" width="108.5" height="105" as="geometry" />
        </mxCell>
        <mxCell id="MvEUnIfEtAE5FNYAcTtk-53" style="edgeStyle=orthogonalEdgeStyle;rounded=0;orthogonalLoop=1;jettySize=auto;html=1;fontSize=14;endArrow=none;endFill=0;startArrow=classic;startFill=1;" parent="WIyWlLk6GJQsqaUBKTNV-1" source="MvEUnIfEtAE5FNYAcTtk-43" edge="1">
          <mxGeometry relative="1" as="geometry">
            <mxPoint x="401" y="850" as="targetPoint" />
          </mxGeometry>
        </mxCell>
        <mxCell id="MvEUnIfEtAE5FNYAcTtk-43" value="Game Over" style="rounded=1;whiteSpace=wrap;html=1;fontSize=12;fillColor=#e1d5e7;strokeColor=#9673a6;" parent="WIyWlLk6GJQsqaUBKTNV-1" vertex="1">
          <mxGeometry x="610" y="940" width="146" height="50" as="geometry" />
        </mxCell>
        <mxCell id="MvEUnIfEtAE5FNYAcTtk-46" value="Yes" style="text;html=1;strokeColor=none;fillColor=none;align=center;verticalAlign=middle;whiteSpace=wrap;rounded=0;fontSize=14;" parent="WIyWlLk6GJQsqaUBKTNV-1" vertex="1">
          <mxGeometry x="474" y="790" width="60" height="30" as="geometry" />
        </mxCell>
        <mxCell id="MvEUnIfEtAE5FNYAcTtk-47" value="Yes" style="text;html=1;strokeColor=none;fillColor=none;align=center;verticalAlign=middle;whiteSpace=wrap;rounded=0;fontSize=14;" parent="WIyWlLk6GJQsqaUBKTNV-1" vertex="1">
          <mxGeometry x="292" y="790" width="60" height="30" as="geometry" />
        </mxCell>
        <mxCell id="MvEUnIfEtAE5FNYAcTtk-48" value="No" style="text;html=1;strokeColor=none;fillColor=none;align=center;verticalAlign=middle;whiteSpace=wrap;rounded=0;fontSize=14;" parent="WIyWlLk6GJQsqaUBKTNV-1" vertex="1">
          <mxGeometry x="592.75" y="720" width="60" height="30" as="geometry" />
        </mxCell>
        <mxCell id="MvEUnIfEtAE5FNYAcTtk-49" value="No" style="text;html=1;strokeColor=none;fillColor=none;align=center;verticalAlign=middle;whiteSpace=wrap;rounded=0;fontSize=14;" parent="WIyWlLk6GJQsqaUBKTNV-1" vertex="1">
          <mxGeometry x="180" y="725" width="60" height="20" as="geometry" />
        </mxCell>
      </root>
    </mxGraphModel>
  </diagram>
</mxfile>
